<svg width="36" height="32" viewBox="0 0 36 32" fill="none" xmlns="http://www.w3.org/2000/svg">
<path d="M11.7419 0H24.1658C27.1323 0.000309087 29.9772 1.1785 32.0748 3.27545C34.1725 5.3724 35.351 8.21638 35.3514 11.1819V20.8194C35.3514 22.2877 35.062 23.7417 34.4999 25.0983C33.9377 26.4549 33.1138 27.6875 32.0751 28.7258C31.0364 29.764 29.8033 30.5875 28.4462 31.1494C27.0891 31.7112 25.6346 32.0003 24.1658 32.0001H11.8701C10.4013 32.0003 8.94679 31.7112 7.5897 31.1494C6.23261 30.5875 4.99951 29.764 3.96082 28.7258C2.92213 27.6875 2.09819 26.4549 1.53604 25.0983C0.973902 23.7417 0.68457 22.2877 0.68457 20.8194V11.1819C0.68457 5.00523 5.56317 0 11.7419 0Z" fill="#21201F"/>
<path d="M14.7816 18.0925V17.5493H11.5097V15.1318H17.8892V18.0074C17.8892 22.5336 15.727 25.1632 11.6379 25.1632C7.42067 25.1632 4.97168 21.8412 4.97168 15.9839C4.97168 10.2723 7.64448 6.77539 12.5483 6.77539C14.4005 6.77539 15.9986 7.26612 16.8716 7.90489V10.3935C15.6172 9.61641 14.1731 9.19981 12.6975 9.18942C9.48152 9.18942 8.11772 11.3726 8.11772 15.9839C8.11772 20.4564 9.24722 22.7446 11.6962 22.7446C14.0356 22.7562 14.7816 20.946 14.7816 18.0925Z" fill="white"/>
<path d="M31.1192 18.4329C31.1192 22.7784 28.7762 25.1737 25.4076 25.1737C22.0389 25.1737 19.696 22.7784 19.696 18.4655C19.696 14.12 22.0389 11.7247 25.4076 11.7247C28.7762 11.7247 31.1192 14.1096 31.1192 18.4329ZM27.9556 18.4329C27.9556 15.4512 27.1035 14.1422 25.411 14.1422C23.7185 14.1422 22.8653 15.4512 22.8653 18.4655C22.8653 21.4472 23.7174 22.7574 25.411 22.7574C27.1047 22.7574 27.9556 21.4367 27.9556 18.4329Z" fill="white"/>
</svg>
